<?xml version="1.0" encoding="utf-8"?>
<!-- Generator: Adobe Illustrator 18.0.0, SVG Export Plug-In . SVG Version: 6.00 Build 0)  -->
<!DOCTYPE svg PUBLIC "-//W3C//DTD SVG 1.1//EN" "http://www.w3.org/Graphics/SVG/1.1/DTD/svg11.dtd">
<svg version="1.1" id="Calque_1" xmlns="http://www.w3.org/2000/svg" xmlns:xlink="http://www.w3.org/1999/xlink" x="0px" y="0px"
	 viewBox="2.3 10.5 96.3 75.2" enable-background="new 2.3 10.5 96.3 75.2" xml:space="preserve">
<g>
	<g>
		<g>
			<g>
				<path fill="#FFFFFF" d="M46.6,16.4C46.5,16.3,46.5,16.3,46.6,16.4c-0.1,0-0.2,0-0.2,0c-0.6,0.3-1.1,0.6-1.5,1.1
					c-0.1,0.2-0.1,0.3,0,0.4c0.4,0.4,0.9,0.8,1.5,1.1c0.1,0,0.2,0,0.3,0.1C46,18.1,46,17.2,46.6,16.4z"/>
				<path fill="#FFFFFF" d="M48.2,16.1c-0.9,0-1.6,0.7-1.6,1.6c0,0.9,0.7,1.6,1.6,1.6c0.9,0,1.6-0.7,1.6-1.6
					C49.7,16.8,49,16.1,48.2,16.1z M48.6,18.5c-0.4,0.2-0.8,0.1-1.1-0.2c-0.3-0.3-0.3-0.8-0.1-1.1c0.2-0.4,0.6-0.5,1-0.4
					c-0.1,0.2-0.2,0.4-0.2,0.6c0,0.1,0.1,0.2,0.1,0.3c0.2,0.2,0.4,0.2,0.8-0.1C49.1,18,48.9,18.3,48.6,18.5z"/>
				<path fill="#FFFFFF" d="M48.2,13.2c-2.5,0-4.6,2.1-4.6,4.6c0,2.5,2.1,4.6,4.6,4.6c2.5,0,4.6-2.1,4.6-4.6
					C52.8,15.3,50.7,13.2,48.2,13.2z M44.3,17.9c-0.2-0.2-0.1-0.3,0-0.5c1-1.2,2.3-1.8,4.3-1.9c1.2,0,2.5,0.6,3.5,1.9
					c0.2,0.2,0.2,0.3,0,0.5C50.1,20.4,46.3,20.4,44.3,17.9z"/>
				<path fill="#FFFFFF" d="M49.8,16.3c0.6,0.9,0.6,1.8,0,2.7c0.7-0.2,1.3-0.7,1.8-1.2c0,0,0-0.1,0-0.2C51.1,17,50.5,16.6,49.8,16.3
					z"/>
			</g>
			<path fill="#FFFFFF" d="M97.2,29.5C91,23.3,84.7,17,78.5,10.8c-0.1-0.1-0.1-0.2-0.2-0.2c-18.5,0-37.1,0-55.6,0
				c-0.1,0.1-0.1,0.2-0.2,0.2C16.2,17,9.9,23.3,3.7,29.5c-0.1,0.1-0.2,0.1-0.3,0.2c0,0,0.1,0.1,0.1,0.1c31.3,0,62.6,0,94,0
				C97.4,29.7,97.3,29.6,97.2,29.5z M51.2,22.6c-3.5,2.2-8.1,0.1-8.6-4c0-0.1,0-0.2-0.1-0.3c0-0.3,0-0.5,0-0.8
				c0-0.2,0.1-0.5,0.1-0.7c0.5-2.5,2.6-4.4,5.3-4.5c2.6-0.1,4.8,1.5,5.5,3.9c0.6,1.8,0.3,3.5-0.8,5.1c-0.2,0.2-0.2,0.2,0,0.4
				c-0.3,0.3-0.7,0.7-1,1C51.6,22.3,51.4,22.4,51.2,22.6z M52.2,23.1c0.4-0.4,0.7-0.7,1.1-1.1c0.1,0.1,0.2,0.2,0.4,0.3
				c-0.4,0.4-0.8,0.8-1.1,1.1C52.4,23.4,52.3,23.2,52.2,23.1z M57.4,28c-0.1,0-0.2,0.1-0.2,0.1c-0.1,0-0.2,0-0.4,0
				c-0.3-0.2-0.6-0.5-0.9-0.7c-0.9-1.1-1.9-2.1-2.8-3.2C53.1,24.1,53,24.1,53,24c0.4-0.4,0.8-0.8,1.2-1.2c0.4,0.3,0.8,0.6,1.2,1
				c0.8,0.7,1.6,1.4,2.4,2.1C58.7,26.7,58.3,27.5,57.4,28z"/>
		</g>
	</g>
	<path fill="#FFFFFF" d="M98.6,43.3c-32.1,0-64.2,0-96.3,0c0-3.9,0-7.7,0-11.6c31.1,0,62.2,0,93.3,0c0.9,0,1.8,0,2.6,0
		c0.1,0,0.2,0,0.3,0.1C98.6,35.6,98.6,39.5,98.6,43.3z"/>
	<path fill="#FFFFFF" d="M8.1,85.7c0-13.5,0-27,0-40.5c3.9,0,7.7,0,11.6,0c0,13.5,0,27,0,40.5C15.8,85.7,11.9,85.7,8.1,85.7z"/>
	<path fill="#FFFFFF" d="M81.3,85.7c0-0.1-0.1-0.2-0.1-0.3c0-13.3,0-26.6,0-39.9c0-0.2,0-0.3,0.3-0.3c3.7,0,7.5,0,11.2,0
		c0,0,0,0,0.1,0c0,13.5,0,27,0,40.5C89,85.7,85.1,85.7,81.3,85.7z"/>
	<path fill="#FFFFFF" d="M23.5,45.2c3.8,0,7.7,0,11.5,0c0,9,0,18,0,27c-3.8,0-7.7,0-11.5,0C23.5,63.2,23.5,54.2,23.5,45.2z"/>
	<path fill="#FFFFFF" d="M77.4,72.2c-3.9,0-7.7,0-11.6,0c0-0.1,0-0.2,0-0.3c0-8.7,0-17.5,0-26.2c0-0.4,0-0.4,0.4-0.4
		c3.6,0,7.2,0,10.8,0c0.1,0,0.2,0,0.4,0C77.4,54.2,77.4,63.2,77.4,72.2z"/>
</g>
</svg>
